<svg width="200" height="200" viewBox="0 0 200 200" fill="none" xmlns="http://www.w3.org/2000/svg">
<rect width="200" height="200" fill="#E32245"/>
<path d="M32.5796 109.566C30.9943 109.566 29.409 109.621 27.8236 109.73C26.2383 109.839 24.653 109.949 23.0676 110.058C24.7623 103.334 26.4023 96.6373 27.9876 89.968C29.6276 83.2987 31.3223 76.602 33.0716 69.878C34.1103 69.714 35.2856 69.55 36.5976 69.386C37.9643 69.222 39.331 69.0307 40.6976 68.812C42.0643 68.5933 43.3763 68.402 44.6336 68.238C45.9456 68.074 47.039 67.91 47.9136 67.746C44.9616 74.634 42.2556 81.5767 39.7956 88.574C37.3903 95.5167 34.985 102.514 32.5796 109.566ZM33.3996 122.44C33.3996 123.479 33.1536 124.517 32.6616 125.556C32.2243 126.595 31.5683 127.524 30.6936 128.344C29.819 129.109 28.7256 129.711 27.4136 130.148C26.1016 130.64 24.5983 130.886 22.9036 130.886C21.7556 130.886 20.717 130.667 19.7876 130.23C18.8583 129.793 18.093 129.219 17.4916 128.508C16.945 127.743 16.5076 126.895 16.1796 125.966C15.8516 125.037 15.6876 124.107 15.6876 123.178C15.6876 122.139 15.8516 121.155 16.1796 120.226C16.5076 119.242 16.9996 118.395 17.6556 117.684C18.3663 116.919 19.2136 116.29 20.1976 115.798C21.2363 115.306 22.4663 115.06 23.8876 115.06C27.0583 115.06 29.4363 115.825 31.0216 117.356C32.607 118.832 33.3996 120.527 33.3996 122.44ZM73.8826 108.746C73.8826 111.807 73.2813 114.595 72.0786 117.11C70.9306 119.57 69.3453 121.702 67.3226 123.506C65.3546 125.31 63.004 126.704 60.2706 127.688C57.592 128.672 54.6946 129.164 51.5786 129.164C49.392 129.164 47.2053 128.59 45.0186 127.442C42.832 126.239 40.7273 124.353 38.7046 121.784L44.7726 109.894C45.1553 110.605 45.7293 111.343 46.4946 112.108C47.26 112.819 48.1073 113.447 49.0366 113.994C50.0206 114.541 50.9773 115.005 51.9066 115.388C52.8906 115.716 53.7653 115.88 54.5306 115.88C55.1866 115.88 55.87 115.771 56.5806 115.552C57.2913 115.333 57.9473 115.005 58.5486 114.568C59.15 114.131 59.6146 113.639 59.9426 113.092C60.3253 112.491 60.5166 111.807 60.5166 111.042C60.5166 109.73 60.0793 108.527 59.2046 107.434C58.3846 106.286 57.346 105.22 56.0886 104.236C54.8313 103.197 53.4646 102.159 51.9886 101.12C50.5126 100.081 49.146 98.988 47.8886 97.84C46.686 96.692 45.6473 95.4073 44.7726 93.986C43.898 92.5647 43.4606 90.9793 43.4606 89.23C43.4606 86.3873 44.308 83.736 46.0026 81.276C47.6973 78.816 49.802 76.7113 52.3166 74.962C54.886 73.158 57.674 71.7367 60.6806 70.698C63.6873 69.6593 66.53 69.14 69.2086 69.14C70.6846 69.14 72.0786 69.3313 73.3906 69.714C74.7026 70.042 75.8233 70.616 76.7526 71.436C77.7366 72.2013 78.502 73.1853 79.0486 74.388C79.65 75.5907 79.9506 77.094 79.9506 78.898C79.9506 79.6633 79.8686 80.4287 79.7046 81.194C79.5953 81.9593 79.486 82.7793 79.3766 83.654L67.4866 87.098C67.596 86.6607 67.678 86.2233 67.7326 85.786C67.842 85.3487 67.8966 84.9113 67.8966 84.474C67.8966 82.834 67.596 81.6587 66.9946 80.948C66.448 80.1827 65.71 79.8 64.7806 79.8C64.3433 79.8 63.7966 79.964 63.1406 80.292C62.5393 80.62 61.9106 81.0573 61.2546 81.604C60.6533 82.096 60.134 82.6973 59.6966 83.408C59.2593 84.1187 59.0406 84.884 59.0406 85.704C59.0406 87.016 59.396 88.1093 60.1066 88.984C60.872 89.8587 61.8013 90.6787 62.8946 91.444C63.988 92.2093 65.1633 93.002 66.4206 93.822C67.7326 94.5873 68.9353 95.5987 70.0286 96.856C71.122 98.1133 72.024 99.6987 72.7346 101.612C73.5 103.471 73.8826 105.849 73.8826 108.746ZM115.841 125.392C114.857 126.649 113.791 127.961 112.643 129.328C111.55 130.749 110.593 131.952 109.773 132.936C108.68 131.405 107.532 129.847 106.329 128.262C105.181 126.677 104.06 125.064 102.967 123.424L102.557 122.768C100.042 124.9 97.5003 126.54 94.931 127.688C92.4163 128.781 89.9837 129.328 87.633 129.328C85.829 129.328 84.189 129 82.713 128.344C81.237 127.633 79.9523 126.622 78.859 125.31C77.7657 123.943 76.891 122.221 76.235 120.144C75.6337 118.012 75.333 115.47 75.333 112.518C75.333 109.457 75.7157 106.231 76.481 102.842C77.2463 99.4527 78.285 96.0907 79.597 92.756C80.909 89.4213 82.5217 86.2507 84.435 83.244C86.3483 80.2373 88.453 77.586 90.749 75.29C93.045 72.9393 95.505 71.0807 98.129 69.714C100.753 68.3473 103.486 67.664 106.329 67.664C108.789 67.664 110.812 68.1833 112.397 69.222C114.037 70.206 115.294 71.518 116.169 73.158C117.098 74.7433 117.754 76.5473 118.137 78.57C118.52 80.5927 118.711 82.6153 118.711 84.638C118.711 89.9953 118.055 94.9427 116.743 99.48C115.431 103.963 113.736 108.008 111.659 111.616L119.449 120.8C118.246 122.385 117.044 123.916 115.841 125.392ZM87.551 110.386C87.551 110.987 87.6603 111.616 87.879 112.272C88.0977 112.928 88.3983 113.502 88.781 113.994C89.1637 114.486 89.6283 114.923 90.175 115.306C90.7763 115.634 91.405 115.798 92.061 115.798C93.9743 115.798 95.7237 115.279 97.309 114.24L94.029 108.828C96.325 107.079 98.0744 105.712 99.277 104.728C100.534 103.744 101.436 103.033 101.983 102.596C102.639 102.049 103.022 101.721 103.131 101.612L104.935 103.662C105.646 101.639 106.22 99.562 106.657 97.43C107.094 95.298 107.313 93.33 107.313 91.526C107.313 90.87 107.258 90.1593 107.149 89.394C107.094 88.6287 106.93 87.918 106.657 87.262C106.438 86.606 106.056 86.0593 105.509 85.622C105.017 85.13 104.334 84.884 103.459 84.884C101.71 84.884 100.097 85.3213 98.621 86.196C97.145 87.0707 95.8057 88.246 94.603 89.722C93.455 91.1433 92.4437 92.7833 91.569 94.642C90.6944 96.446 89.929 98.3047 89.273 100.218C88.6717 102.077 88.2343 103.908 87.961 105.712C87.6877 107.516 87.551 109.074 87.551 110.386ZM146.049 127.36C144.682 127.579 143.179 127.825 141.539 128.098C139.899 128.371 138.423 128.617 137.111 128.836C137.33 127.032 137.548 125.255 137.767 123.506C137.931 121.975 138.068 120.445 138.177 118.914C138.341 117.383 138.478 116.071 138.587 114.978H131.453L128.173 126.786C126.97 126.95 125.549 127.141 123.909 127.36C122.269 127.524 120.738 127.688 119.317 127.852C117.568 128.071 115.846 128.289 114.151 128.508C116.338 121.237 118.497 114.076 120.629 107.024C121.504 104.072 122.406 100.983 123.335 97.758C124.319 94.5327 125.276 91.3347 126.205 88.164C127.189 84.9387 128.118 81.85 128.993 78.898C129.868 75.946 130.633 73.24 131.289 70.78C135.006 70.5067 138.778 70.1787 142.605 69.796C146.486 69.4133 150.258 68.894 153.921 68.238C153.757 69.9873 153.566 72.174 153.347 74.798C153.183 77.3673 153.019 80.1827 152.855 83.244C152.691 86.3053 152.527 89.5033 152.363 92.838C152.199 96.1727 152.035 99.4527 151.871 102.678C151.598 110.222 151.297 118.231 150.969 126.704C149.329 126.977 147.689 127.196 146.049 127.36ZM133.421 106.778C133.64 106.778 134.022 106.778 134.569 106.778C135.17 106.723 135.772 106.696 136.373 106.696C137.029 106.641 137.63 106.614 138.177 106.614C138.724 106.559 139.106 106.505 139.325 106.45C139.325 106.122 139.352 105.575 139.407 104.81C139.516 103.99 139.598 103.088 139.653 102.104C139.762 101.065 139.872 99.9447 139.981 98.742C140.09 97.5393 140.2 96.364 140.309 95.216C140.528 92.428 140.801 89.4213 141.129 86.196L141.621 79.062L140.391 79.144L138.505 86.196L133.421 106.778ZM158.728 129.082C159.985 123.069 161.188 117.137 162.336 111.288C162.828 108.828 163.32 106.259 163.812 103.58C164.304 100.901 164.768 98.2773 165.206 95.708C165.698 93.084 166.108 90.5693 166.436 88.164C166.818 85.704 167.146 83.4627 167.42 81.44C166.162 81.276 164.878 81.2213 163.566 81.276C162.308 81.3307 161.051 81.1667 159.794 80.784C159.848 79.9093 159.876 78.898 159.876 77.75C159.876 76.602 159.903 75.454 159.958 74.306C160.012 73.0487 160.067 71.7093 160.122 70.288C161.543 70.3973 162.964 70.4793 164.386 70.534C165.807 70.5887 167.228 70.616 168.65 70.616C171.438 70.616 174.116 70.5613 176.686 70.452C179.31 70.288 181.715 70.124 183.902 69.96C186.143 69.7413 188.33 69.4953 190.462 69.222L189.56 73.65C189.286 74.9073 189.013 76.192 188.74 77.504C188.521 78.816 188.302 79.9367 188.084 80.866C186.881 81.194 185.651 81.44 184.394 81.604C183.191 81.7133 181.988 81.8773 180.786 82.096C180.403 83.9547 179.993 86.032 179.556 88.328C179.118 90.5693 178.681 92.92 178.244 95.38C177.861 97.7853 177.478 100.245 177.096 102.76C176.713 105.275 176.33 107.68 175.948 109.976C175.073 115.388 174.253 120.991 173.488 126.786L158.728 129.082Z" fill="white"/>
</svg>
